<svg xmlns="http://www.w3.org/2000/svg" width="1000" height="1000" viewBox="0 0 1000 1000">
  <defs>
    <style>
      .cls-1 {
        fill: #20232a;
      }

      .cls-2 {
        fill: #fff;
        fill-rule: evenodd;
      }
    </style>
  </defs>
  <circle class="cls-1" cx="500" cy="500" r="500"/>
  <path id="_copy" data-name="? copy" class="cls-2" d="M426.44,610.168h94.5v-10.5a69.052,69.052,0,0,1,8.4-33.6q8.4-15.389,28.7-32.2t24.5-19.6q34.29-27.989,49.7-51.45,15.39-23.445,15.4-60.55,0-61.588-41.3-96.25t-119.7-34.65a379.993,379.993,0,0,0-73.85,7q-35.355,7.005-60.55,19.6v79.8q21.69-10.5,51.8-17.85a242.024,242.024,0,0,1,57.4-7.35q49.695,0,70,13.3t20.3,46.2a57.95,57.95,0,0,1-13.65,38.15q-13.65,16.455-42.35,39.55-23.1,18.9-36.4,32.55a138.353,138.353,0,0,0-23.1,32.2q-9.81,18.555-9.8,41.65v14Zm-2.8,119h99.4v-69.3h-99.4v69.3Z"/>
</svg>
