<svg xmlns="http://www.w3.org/2000/svg" width="1000" height="1000" viewBox="0 0 1000 1000">
  <defs>
    <style>
      .cls-1 {
        fill: #20232a;
      }

      .cls-2 {
        fill: #fff;
        fill-rule: evenodd;
      }
    </style>
  </defs>
  <circle class="cls-1" cx="500" cy="500" r="500"/>
  <path class="cls-2" d="M662.5,240.146l-90.788-38.284s-23.26,71.447-57.973,65.63c0,0-59.779,20.162-84.225-64.536L339.823,241.24s37.929,60.695-1.094,94.069c0,0-36.552,47.231-98.445,5.469L202,430.473s77.643,19.27,65.63,82.037c0,0-8.112,48.617-64.536,56.879l38.284,92.976s64.871-38.565,90.788,0c0,0,48.617,30.429,7.657,99.539L429.517,798s24.922-73.182,67.817-64.536c0,0,51.4-10.57,73.287,64.536l90.788-37.19s-36.16-62.293,2.188-91.882c0,0,27.166-45.4,99.539-8.751l35-87.506s-66.789-17.483-63.442-66.724c0,0-13.394-53.023,63.442-76.568l-35-88.6s-52.069,36.374-90.788,4.376C672.348,345.154,618.927,311.377,662.5,240.146Z"/>
  <circle class="cls-1" cx="500" cy="500" r="151.406"/>
</svg>
