<svg id="Group_2_copy" data-name="Group 2 copy" xmlns="http://www.w3.org/2000/svg" width="1038" height="1000" viewBox="0 0 1038 1000">
  <defs>
    <style>
      .cls-1, .cls-3 {
        fill: #fff;
      }

      .cls-1, .cls-6, .cls-7 {
        fill-rule: evenodd;
      }

      .cls-2, .cls-4, .cls-6, .cls-7 {
        fill: #fe5721;
      }

      .cls-4, .cls-5, .cls-6 {
        stroke: #fe5721;
      }

      .cls-4 {
        stroke-width: 10px;
      }

      .cls-5 {
        fill: none;
      }

      .cls-5, .cls-6 {
        stroke-width: 35px;
      }
    </style>
  </defs>
  <path class="cls-1" d="M121,364V889l5,38,16,4,45,4H891l26-8,5-16,5-26V350L827,318,712,304,446,314,242,335Z"/>
  <rect id="Rounded_Rectangle_5" data-name="Rounded Rectangle 5" class="cls-2" x="238.469" y="516" width="299.437" height="437.719" rx="40" ry="40"/>
  <rect id="Rounded_Rectangle_6" data-name="Rounded Rectangle 6" class="cls-3" x="274.781" y="550.656" width="227" height="383.688" rx="20" ry="20"/>
  <rect id="Rounded_Rectangle_2" data-name="Rounded Rectangle 2" class="cls-4" x="303.625" y="686.594" width="37.031" height="111.062" rx="18.5" ry="18.5"/>
  <rect id="Rounded_Rectangle_1" data-name="Rounded Rectangle 1" class="cls-5" x="100.531" y="262.406" width="842.407" height="691.313" rx="50" ry="50"/>
  <path class="cls-6" d="M21.505,303.412s-4.4,117.244,128.062,125.06c0,0,70.98,10.617,131.063-69.033,0,0,31.708,69.6,132.064,69.033,0,0,64.513-.8,108.052-64.031,0,0,39.178,72.051,127.061,64.031,0,0,57.182,2.233,113.054-69.033,0,0,49.613,82.229,157.076,66.031,0,0,98.363-21.426,101.053-131.063l-78.042-200.1s-10.517-40.652-84.04-48.023H186.585s-73.651,6.139-98.048,74.035Z"/>
  <path class="cls-7" d="M198.44,88.295s-55.476-12.532-77.953,50.693L59.523,306.972s-0.051,79.936,85.949,84.488c0,0,105.264,4.953,116.929-96.416,0,0,4.472-15.748,17.989-13.916,0,0,14.751-1.059,17.99,12.922,0,0,.433,93.445,110.933,98.4,0,0,88.925-2.207,91.944-96.416,0,0,3.842-15.558,15.991-14.91,0,0,15.113-3.153,20.987,13.916,0,0,2.943,97.805,100.939,97.41,0,0,93.321-1.443,101.939-94.428,0,0,2.65-18.973,19.988-16.9,0,0,16.487-1.626,17.989,17.892,0,0,2.747,88.629,111.933,92.44,0,0,82.394-1.52,90.945-93.434L909.012,111.157s-17.425-24.85-45.972-24.85Zm109.216-1.982h556.25v7H307.656v-7Z"/>
  <path class="cls-7" d="M311.645,86.526H192.673s-49.784-5.952-70.576,46.117L59.586,304.075S54.5,385.62,142.262,392.3c0,0,106.545,8.429,119.979-93.236,0,0,4.528-21.259,21.173-18.045Z"/>
</svg>
