<svg xmlns="http://www.w3.org/2000/svg" width="1000" height="1000" viewBox="0 0 1000 1000">
  <defs>
    <style>
      .cls-1 {
        fill: #373e48;
        fill-rule: evenodd;
      }
    </style>
  </defs>
  <path class="cls-1" d="M366.324,140.6s-4.245-41.145,17.1-73.671c0,0,16.62-26.557,39.474-43.413,0,0,41.308-32.661,100-21.049,0,0,73.96,6.78,169.737,101.3,0,0,137.888,111.189,136.842,242.063,0,0-5.3,58.762-59.211,94.72,0,0-26.651,23.237-81.579,21.049,0,0-12.036-76.318-125-190.756C563.692,270.84,465.5,165.193,366.324,140.6Z"/>
  <path class="cls-1" d="M26.85,415.551s-58.54,66.994-2.632,167.076c0,0,80.067,148.308,235.526,227.591,0,0,82.493,48.283,159.211-14.471,0,0,70.286-59.546,34.21-152.6,0,0-58.666-160.663-250-261.8C203.166,381.347,93.939,329.579,26.85,415.551Z"/>
  <path class="cls-1" d="M637.377,494.484s-5.548-82.232-132.895-198.648c0,0-92.9-100.882-196.053-106.56,0,0-55.63-4.409-96.052,42.1,0,0-35.031,34.911-35.527,81.565,0,0,75.01,5.352,194.737,118.4,0,0,125.111,110.2,144.737,227.591l323.684,321s57.065,43.836,121.053-1.315c0,0,71.159-58.264,21.052-138.134Z"/>
</svg>
