<svg xmlns="http://www.w3.org/2000/svg" width="1000" height="1000" viewBox="0 0 1000 1000">
  <defs>
    <style>
      .cls-1 {
        fill: #373e48;
      }

      .cls-2 {
        fill: #fff;
        fill-rule: evenodd;
      }
    </style>
  </defs>
  <circle class="cls-1" cx="500" cy="500" r="500"/>
  <path class="cls-2" d="M471,293S345,304.484,345,441V545s-1.537,25.81-27,42c0,0-23,22.77-23,52v32s0.408,6,8,6H698s6-.581,6-6V636s3.822-31.165-29-55c0,0-18-14.988-18-33V436s-9.269-130.883-121-141c0,0,5.4-43-33-43C503,252,471,248.51,471,293Z"/>
  <path class="cls-2" d="M451,700h99s-2.076,49-49,49C501,749,451,751.724,451,700Z"/>
</svg>
