<svg xmlns="http://www.w3.org/2000/svg" width="1000" height="1000" viewBox="0 0 1000 1000">
  <defs>
    <style>
      .cls-1 {
        fill: #20232a;
      }

      .cls-2, .cls-3 {
        fill: #fff;
      }

      .cls-3 {
        fill-rule: evenodd;
      }
    </style>
  </defs>
  <circle class="cls-1" cx="500" cy="500" r="500"/>
  <rect id="Rounded_Rectangle_1" data-name="Rounded Rectangle 1" class="cls-2" x="217" y="470" width="103" height="178" rx="50" ry="50"/>
  <rect id="Rounded_Rectangle_1_copy" data-name="Rounded Rectangle 1 copy" class="cls-2" x="683" y="470" width="103" height="178" rx="50" ry="50"/>
  <path class="cls-3" d="M259,474S242.262,252,499,252c0,0,242-16.111,242,221l-24,2s15.462-200-219-200c0,0-214-9.666-214,200Z"/>
  <path class="cls-3" d="M715,638s31.68,88.945-206,87c0,0-9,2-9,13,0,0,2.03,11,8,11,0,0,239.6,18.184,231-108Z"/>
</svg>
