<svg id="TOP" xmlns="http://www.w3.org/2000/svg" width="1000" height="1000" viewBox="0 0 1000 1000">
  <defs>
    <style>
      .cls-1, .cls-4 {
        fill: #636363;
      }

      .cls-2 {
        fill: #fff;
      }

      .cls-3 {
        fill: #a9a9a9;
      }

      .cls-3, .cls-4 {
        fill-rule: evenodd;
      }
    </style>
  </defs>
  <circle class="cls-1" cx="500" cy="500" r="500"/>
  <circle class="cls-2" cx="500" cy="500" r="450"/>
  <path id="RIGHT" class="cls-3" d="M672.022,386.916s-71.833-58.192-202.584,2.619l13.971,10.479,33.182,9.605,20.957,2.62,31.435,8.732,28.816-3.493,19.211-.873,29.689-6.986,18.337-6.986Z"/>
  <path id="LEFT" class="cls-4" d="M456.543,496.427s40.17,19.557,88.412,0l23.227-7.492,20.979-8.991,15.734-8.991,20.979-17.233,13.487-16.484,13.486-16.483,8.991-13.487,8.991-17.982s-74.324,40.357-173.475,5.994c0,0-117.934-57.608-171.93-20.229l17.233,37.462,21.729,23.227,30.719,29.97L420.579,479.2l22.478,11.988Z"/>
  <path id="RIGHT-2" data-name="RIGHT" class="cls-4" d="M699.07,241.3s24.542,204.765-143.536,254.6c0,0,158.809,41.1,147.807,263.147H690.526S705.317,554.638,543.573,505.3c0,0-17.194-12.559,3.418-18.8,0,0,155.6-36.271,140.117-246.061Z"/>
  <path id="LEFT-2" data-name="LEFT" class="cls-4" d="M301.785,241.3S277.242,446.063,445.32,495.9c0,0-158.809,41.1-147.807,263.147h12.816S295.538,554.638,457.281,505.3c0,0,17.195-12.559-3.417-18.8,0,0-155.6-36.271-140.118-246.061Z"/>
  <path id="BAR-BOTTOM" class="cls-4" d="M278.957,748.637H721.043a11.134,11.134,0,1,1,0,22.267H278.957A11.134,11.134,0,1,1,278.957,748.637Z"/>
  <path id="BAR-TOP" class="cls-4" d="M278.957,229.1H721.043a11.134,11.134,0,1,1,0,22.267H278.957A11.134,11.134,0,1,1,278.957,229.1Z"/>
</svg>
