<svg xmlns="http://www.w3.org/2000/svg" width="1000" height="1000" viewBox="0 0 1000 1000">
  <defs>
    <style>
      .cls-1 {
        fill: #f4f4f4;
      }

      .cls-2 {
        fill: #372a2a;
      }

      .cls-2, .cls-4, .cls-5, .cls-6, .cls-8, .cls-9 {
        fill-rule: evenodd;
      }

      .cls-3, .cls-5 {
        fill: #7f6f81;
      }

      .cls-4 {
        fill: #c1573e;
      }

      .cls-6, .cls-7 {
        fill: #ada486;
      }

      .cls-8 {
        fill: #322426;
      }

      .cls-9 {
        fill: #c0b16e;
      }
    </style>
  </defs>
  <circle class="cls-1" cx="500" cy="500" r="500"/>
  <path class="cls-2" d="M615,395H383s-132.54,7.685-156,114c0,0-2.006,15.981-23,17,0,0-18.02,12.34,0,19,0,0,14.867-.114,9,12l-19.594,66S207.84,748.9,208,755c0,0,1.138,36.42,43,40H753s30.491-4.578,38-39l13-109s1.372-23.572-19-90c0,0-7.094-12.093,11-10,0,0,16.078-9.186-2-21,0,0-19.035,7.449-26-24C768,502,756.17,409.887,615,395Z"/>
  <rect class="cls-3" x="432" y="412" width="137" height="271"/>
  <path class="cls-4" d="M213,643l11,100s-0.649,32.548,30,32H744s17.351,1.4,29-16l14-118s-26.421-3.637-38,30c0,0-13.037,37.036-87,32H332s-47.688-.836-66-15C266,688,241.747,649.673,213,643Z"/>
  <path class="cls-5" d="M658,423s68.132,13,92,87l34,112s-45.154,14.6-51,44c0,0-9.817,18.977-72,17Z"/>
  <path id="Shape_5_copy" data-name="Shape 5 copy" class="cls-5" d="M340,423s-68.132,13-92,87L214,622s45.154,14.6,51,44c0,0,9.817,18.977,72,17Z"/>
  <path class="cls-6" d="M357,472h56v14l-28,19-28-19V472Z"/>
  <path id="Shape_1_copy" data-name="Shape 1 copy" class="cls-6" d="M585,472h56v14l-28,19-28-19V472Z"/>
  <rect class="cls-7" x="353" y="416" width="64" height="43"/>
  <rect id="Rectangle_1_copy" data-name="Rectangle 1 copy" class="cls-7" x="581" y="416" width="64" height="43"/>
  <path class="cls-8" d="M368,460s-24.02-138.307,40-208c0,0,32.916-55.888,117-42,0,0,59.715,6.515,95,89,0,0,25.622,54.9,13,167l-39-1s2.124-84.457-5-123c0,0-12.026-78.882-74-89,0,0-45.825-7.1-77,34,0,0-46.172,42.989-32,175l-38,3v-5Z"/>
  <path class="cls-9" d="M378,455h16s-13.034-121.015,20-159c0,0,16.142-39.9,78-58,0,0,60.26-12.25,98,62,0,0,19.083,26.338,15,155h16s6.319-123.956-17-160c0,0-38.328-82.426-116-71,0,0-63.976,3.632-96,80C392,304,369.059,344.882,378,455Z"/>
  <path class="cls-6" d="M357,501V685h57V501l-29,21Z"/>
  <path id="Shape_2_copy" data-name="Shape 2 copy" class="cls-6" d="M585,501V685h57V501l-29,21Z"/>
</svg>
