<svg xmlns="http://www.w3.org/2000/svg" width="1000" height="1000" viewBox="0 0 1000 1000">
  <defs>
    <style>
      .cls-1 {
        fill: #f4f4f4;
      }

      .cls-2 {
        fill: #503d36;
      }

      .cls-2, .cls-3, .cls-4 {
        fill-rule: evenodd;
      }

      .cls-3 {
        fill: #c18c7d;
      }

      .cls-4 {
        fill: #5b5b5b;
      }
    </style>
  </defs>
  <circle class="cls-1" cx="500" cy="500" r="500"/>
  <path class="cls-2" d="M598,317l28-107-33-1-26,99s-36.546,10.34-67,56c0,0-23.826-40.373-67-54L407,209l-33,2,28,105-21,74,37,99s-43.057,40.529-51,125c0,0-12.432,119.906-73,160,0,0,27.363,5.906,34,23,0,0,20.785,20.768,46-3,0,0,24.255-35.509,51,0,0,0,22.58,26.66,49,0,0,0,22.568-36.883,51,1,0,0,26.219,24.888,56-5,0,0,17.881-30.618,46,3,0,0,20.942,27.852,52-3,0,0,9.158-11.943,23-12,0,0-49.866-37.365-65-151,0,0-17.757-119.545-55-139l31-93Z"/>
  <path class="cls-3" d="M426,492.16S373.074,551.672,370,653c0,0-15.5,85.105-57,119a28.422,28.422,0,0,1,18,13s13.93,24.334,43-1c0,0,8.183-16.786,22-16l5-54s4.17-13.822,13,0l-5,56s13.568,0.226,19,13c0,0,17.869,31.828,49-3,0,0,7.689-11.34,17-12l1-51s6.05-10.2,12,2l-2,49s8.7-.618,17,9c0,0,24.664,35.419,56,3,0,0,7.339-13.822,15-13l-5-53s3.628-11.413,12,0l4,51s15.05,3.491,22,14c0,0,25.99,31.563,49,2,0,0,6.219-7.569,11-7,0,0-47.336-28.16-62-155,0,0-13.046-84.431-50-126.84H426Z"/>
  <path class="cls-3" d="M501,390s-42.6-65.148-84-68l-20,71,32,86.148H570L602,395l-15-77s-49.83.346-87,74"/>
  <path class="cls-4" d="M412,313l9-2-21-87H390Z"/>
  <path class="cls-4" d="M580,308h9l23-86h-9Z"/>
</svg>
