<svg xmlns="http://www.w3.org/2000/svg" width="1000" height="1000" viewBox="0 0 1000 1000">
  <defs>
    <style>
      .cls-1, .cls-4 {
        fill: #f4f4f4;
      }

      .cls-2 {
        fill: #e0e0e0;
      }

      .cls-2, .cls-3, .cls-4 {
        fill-rule: evenodd;
      }

      .cls-3 {
        fill: #35495e;
      }
    </style>
  </defs>
  <circle class="cls-1" cx="500" cy="500" r="500"/>
  <path id="Rounded_Rectangle_1_copy" data-name="Rounded Rectangle 1 copy" class="cls-2" d="M550.918,206.257l232.9,42.16a25,25,0,0,1,20.147,29.053L712.605,782.153A25,25,0,0,1,683.552,802.3l-232.9-42.159a25,25,0,0,1-20.148-29.053L521.864,226.4A25,25,0,0,1,550.918,206.257Z"/>
  <path class="cls-3" d="M478.3,467.355l282.41,51.122-3.74,20.664L474.554,488.019Z"/>
  <g>
    <path id="Rounded_Rectangle_2" data-name="Rounded Rectangle 2" class="cls-3" d="M594.447,249.562a24.5,24.5,0,1,1-28.472,19.744A24.5,24.5,0,0,1,594.447,249.562Z"/>
    <path id="Rounded_Rectangle_2_copy" data-name="Rounded Rectangle 2 copy" class="cls-3" d="M731.224,274.321a24.5,24.5,0,1,1-28.472,19.744A24.5,24.5,0,0,1,731.224,274.321Z"/>
    <path id="Rounded_Rectangle_2_copy_2" data-name="Rounded Rectangle 2 copy 2" class="cls-3" d="M572.537,370.6a24.5,24.5,0,1,1-28.472,19.744A24.5,24.5,0,0,1,572.537,370.6Z"/>
    <path id="Rounded_Rectangle_2_copy_2-2" data-name="Rounded Rectangle 2 copy 2" class="cls-3" d="M709.315,395.354A24.5,24.5,0,1,1,680.842,415.1,24.5,24.5,0,0,1,709.315,395.354Z"/>
  </g>
  <g id="Group_1_copy" data-name="Group 1 copy">
    <path id="Rounded_Rectangle_2-2" data-name="Rounded Rectangle 2" class="cls-3" d="M539.941,550.668a24.5,24.5,0,1,1-28.473,19.744A24.5,24.5,0,0,1,539.941,550.668Z"/>
    <path id="Rounded_Rectangle_2_copy-2" data-name="Rounded Rectangle 2 copy" class="cls-3" d="M676.718,575.427a24.5,24.5,0,1,1-28.473,19.745A24.5,24.5,0,0,1,676.718,575.427Z"/>
    <path id="Rounded_Rectangle_2_copy_2-3" data-name="Rounded Rectangle 2 copy 2" class="cls-3" d="M518.031,671.7a24.5,24.5,0,1,1-28.472,19.744A24.5,24.5,0,0,1,518.031,671.7Z"/>
    <path id="Rounded_Rectangle_2_copy_2-4" data-name="Rounded Rectangle 2 copy 2" class="cls-3" d="M654.808,696.46a24.5,24.5,0,1,1-28.472,19.745A24.5,24.5,0,0,1,654.808,696.46Z"/>
    <path id="Rounded_Rectangle_2_copy_3" data-name="Rounded Rectangle 2 copy 3" class="cls-3" d="M601.264,621.728a24.5,24.5,0,1,1-28.472,19.744A24.5,24.5,0,0,1,601.264,621.728Z"/>
  </g>
  <path id="Rounded_Rectangle_1_copy-2" data-name="Rounded Rectangle 1 copy" class="cls-3" d="M207.24,283.286L429.17,201.03a25,25,0,0,1,32.13,14.753L639.547,696.7a25,25,0,0,1-14.753,32.13L402.865,811.085a25,25,0,0,1-32.131-14.754L192.487,315.416A25,25,0,0,1,207.24,283.286Z"/>
  <path class="cls-4" d="M277.629,545l269.11-99.743,7.3,19.691-269.11,99.743Z"/>
  <g>
    <path id="Rounded_Rectangle_2-3" data-name="Rounded Rectangle 2" class="cls-4" d="M266.751,298.4a24.5,24.5,0,1,1-14.458,31.487A24.5,24.5,0,0,1,266.751,298.4Z"/>
    <path id="Rounded_Rectangle_2_copy-3" data-name="Rounded Rectangle 2 copy" class="cls-4" d="M397.086,250.1a24.5,24.5,0,1,1-14.458,31.487A24.5,24.5,0,0,1,397.086,250.1Z"/>
    <path id="Rounded_Rectangle_2_copy_2-5" data-name="Rounded Rectangle 2 copy 2" class="cls-4" d="M309.5,413.738a24.5,24.5,0,1,1-14.458,31.487A24.5,24.5,0,0,1,309.5,413.738Z"/>
    <path id="Rounded_Rectangle_2_copy_2-6" data-name="Rounded Rectangle 2 copy 2" class="cls-4" d="M439.834,365.43a24.5,24.5,0,1,1-14.459,31.487A24.5,24.5,0,0,1,439.834,365.43Z"/>
  </g>
  <g id="Group_1_copy-2" data-name="Group 1 copy">
    <path id="Rounded_Rectangle_2-4" data-name="Rounded Rectangle 2" class="cls-4" d="M373.1,585.33a24.5,24.5,0,1,1-14.459,31.488A24.5,24.5,0,0,1,373.1,585.33Z"/>
    <path id="Rounded_Rectangle_2_copy-4" data-name="Rounded Rectangle 2 copy" class="cls-4" d="M503.433,537.023a24.5,24.5,0,1,1-14.458,31.487A24.5,24.5,0,0,1,503.433,537.023Z"/>
    <path id="Rounded_Rectangle_2_copy_2-7" data-name="Rounded Rectangle 2 copy 2" class="cls-4" d="M415.845,700.663a24.5,24.5,0,1,1-14.458,31.488A24.5,24.5,0,0,1,415.845,700.663Z"/>
    <path id="Rounded_Rectangle_2_copy_2-8" data-name="Rounded Rectangle 2 copy 2" class="cls-4" d="M546.18,652.355a24.5,24.5,0,1,1-14.458,31.488A24.5,24.5,0,0,1,546.18,652.355Z"/>
    <path id="Rounded_Rectangle_2_copy_3-2" data-name="Rounded Rectangle 2 copy 3" class="cls-4" d="M462.052,615.282a24.5,24.5,0,1,1-14.458,31.488A24.5,24.5,0,0,1,462.052,615.282Z"/>
  </g>
</svg>
