<svg id="Hand_copy" data-name="Hand copy" xmlns="http://www.w3.org/2000/svg" width="1000" height="1000" viewBox="0 0 1000 1000">
  <defs>
    <style>
      .cls-1 {
        fill: #f4f4f4;
      }

      .cls-2, .cls-3, .cls-4 {
        fill-rule: evenodd;
      }

      .cls-3 {
        fill: #fccb80;
      }

      .cls-4 {
        fill: #fb9879;
      }
    </style>
  </defs>
  <circle class="cls-1" cx="500" cy="500" r="500"/>
  <path class="cls-2" d="M602.021,846.535s5.631,9.55,15.428,5.991L683.3,828.6s10.556-5.9,7.143-15.3l-23.394-64.387s-5.982-10.45.942-38.442c0,0,8.738-43.61,4.764-73.514,0,0-1-12.2-7.222-18.358a235.354,235.354,0,0,0-16.311-20.578s-14.273-15.421-17.641-21.2c0,0-7.219-10.347-18.975-9.671,0,0-6.339,1.391-9.712,5.185,0,0-12.821-11.179-24.828-7.545,0,0-19.068,3.506-16.589,24.249,0,0-8.578-3.009-18.536,6.735,0,0-7.063,7.957-4.262,18.665,0,0-8.182-2.4-15.963,4.7,0,0-9.954,9.113-5.239,25.1,0,0-24.912,6.065-13.045,34,0,0,12.96,36.786,23.486,49.445,0,0,11.481,16.152,26.507,27.365,0,0,20.668,11.854,25.62,31Z"/>
  <g id="White">
    <path class="cls-3" d="M597.483,578.724s-9.953-9.162-18.222-6.08c0,0-10.728,2.529-10.468,13.743,0,0,1.3,8.888,10.9,14.812C579.7,601.2,591.347,589.813,597.483,578.724Z"/>
    <path class="cls-3" d="M573.754,606.119a19.235,19.235,0,0,1-7.58-7.185s-8.476-6.975-17.825,2.611c0,0-7.131,10.91,3.939,24.521,0,0,16.912,22.409,34.489,25.017,0,0,15.43,1.955,15.213-14.362,0,0-18.7,5.653-31.259-2.447C570.731,634.274,551.194,624.108,573.754,606.119Z"/>
    <path class="cls-3" d="M541.559,623.891s14.255,28.565,43.132,35.128c0,0-1.7,19.529-21.553,16.666,0,0-24.4-7.631-36.218-28.254,0,0-6.39-12.677.1-21.017C527.015,626.414,532.241,618.537,541.559,623.891Z"/>
    <path class="cls-3" d="M560.387,683.311s-26.023-8.02-40.075-31.271c0,0-9.353-.438-10.689,11.614,0,0-2.515,12.377,13.783,24.258,0,0,16.283,9.3,23.719,9.051C547.125,696.963,560.329,694.8,560.387,683.311Z"/>
    <path class="cls-3" d="M519.148,694.428s16.306,42.458,48.225,59.783c0,0,11.237,7.823,19.945,27.54l21.8,60s0.754,5.248,6.163,3.283l64.875-23.571s3.686-2.013,1.952-6.784l-22.684-62.436s-7.494-24.463.854-41.723c0,0,8.834-49.136,4.1-73.824,0,0-.492-8.359-5.627-13.968,0,0-11.006-14.965-18.838-22.973,0,0-9.536-10.593-15.779-19.115,0,0-2.749-5.633-10.818-5.457,0,0-5.11.777-8.515,6.959a120.1,120.1,0,0,1-18.718,24.47s-7.449,6.429-11.885,9.84c0,0-7.964,5.941-.89,9.711,0,0,14.54,12.375,38.665-3,0,0-.535-2.849.71-4.123a5.955,5.955,0,0,1,3.726-1.906,4.049,4.049,0,0,1,3.235,4.346s-2.015,11.672,4.206,22.216c0,0,2.092,3.541-2.13,6.3,0,0-24.572,17.609-19.833,50.276a3.685,3.685,0,0,1-3.017,3.856s-4.3.937-5.009-3.149c0,0-6.692-31.159,21.653-55.906,0,0-3.988-10.032-3.455-12.549l-2.439.886s4.477,20.418-17.211,25.579c0,0,.859,21.362-23.462,25.09,0,0-.416,14.5-19.471,20.878C549.473,704.945,538.353,706.475,519.148,694.428Z"/>
  </g>
  <path class="cls-2" d="M817.689,622.083s10.726,2.8,15.166-6.627L862.7,552.068s3.329-11.626-5.716-15.884L795,507s-11.609-3.195-26.43-27.931c0,0-24.543-37.092-48.44-55.5,0,0-9.312-7.95-18.064-7.931a235.431,235.431,0,0,0-26.075-3.1s-20.994-.877-27.457-2.6c0,0-12.413-2.251-20.276,6.515,0,0-3.515,5.456-3.233,10.524,0,0-16.974,1.109-22.929,12.15,0,0-11.053,15.928,5.326,28.894,0,0-8.2,3.912-8.4,17.843,0,0,.6,10.623,10.135,16.243,0,0-7.493,4.068-8.013,14.584,0,0-.637,13.48,13.973,21.492,0,0-13.394,21.863,14.718,33.316,0,0,35.123,16.956,51.513,18.515,0,0,19.528,3.364,38.091.725,0,0,23.015-6.161,40.024,3.929Z"/>
  <g id="White-2" data-name="White">
    <path class="cls-4" d="M625.688,435.323s-13.518.517-17.21,8.532c0,0-5.827,9.357,2.262,17.127,0,0,7.187,5.388,18.175,2.82C628.915,463.8,629.153,447.514,625.688,435.323Z"/>
    <path class="cls-4" d="M628.168,471.481a19.243,19.243,0,0,1-10.441.247s-10.928,1.027-10.8,14.417c0,0,2.633,12.766,20.079,14.616,0,0,27.792,3.973,42.1-6.567,0,0,12.322-9.49.667-20.91,0,0-9.28,17.192-23.9,20.3C645.871,493.582,624.847,500.144,628.168,471.481Z"/>
    <path class="cls-4" d="M617.859,506.781s30.247,10.213,55.357-5.488c0,0,12.559,15.052-3.54,27.015,0,0-22.684,11.784-45.606,5.489,0,0-13.469-4.488-14.748-14.974C609.322,518.823,607.476,509.553,617.859,506.781Z"/>
    <path class="cls-4" d="M673.1,535.656s-24.111,12.655-50.467,6.068c0,0-6.943,6.283.605,15.773,0,0,6.94,10.552,26.876,7.49,0,0,18.1-4.881,23.2-10.3C673.317,554.688,681.158,543.847,673.1,535.656Z"/>
    <path class="cls-4" d="M651.686,572.611s41.5,18.621,76.347,8.41c0,0,13.485-2.372,33.561,5.475l57.754,27.19s4.233,3.191,6.685-2.015l29.4-62.45s1.2-4.026-3.4-6.188l-60.1-28.295s-22.56-12.07-28.8-30.2c0,0-28.37-41.08-49.132-55.254,0,0-6.242-5.582-13.837-5.941,0,0-18.356-2.856-29.556-3.016,0,0-14.231-.791-24.666-2.434,0,0-5.921-2.058-11.52,3.754,0,0-3.077,4.153-1.134,10.939a120.112,120.112,0,0,1,3.973,30.551s-0.753,9.81-1.5,15.358c0,0-1.461,9.827,6.214,7.514,0,0,19.037-1.471,25.307-29.386,0,0-2.387-1.645-2.4-3.426a5.954,5.954,0,0,1,1.3-3.977,4.049,4.049,0,0,1,5.358.8s6.8,9.7,18.643,12.792c0,0,3.98,1.037,2.927,5.967,0,0-5.016,29.811,21.372,49.641a3.685,3.685,0,0,1,.579,4.862s-2.393,3.7-5.773,1.3c0,0-26.711-17.383-24.05-54.917,0,0-9.9-4.305-11.3-6.466l-1.105,2.348s17.568,11.327,5.823,30.275c0,0,15.667,14.546,1.044,34.335,0,0,9.924,10.575.907,28.534C680.609,558.694,673.8,567.618,651.686,572.611Z"/>
  </g>
  <path class="cls-2" d="M772.33,278.717s7.947-7.73,2.172-16.408l-38.82-58.325s-8.228-8.862-16.55-3.323L662.1,238.618s-8.739,8.284-37.574,8.176c0,0-44.44,1.823-72.555,12.756,0,0-11.62,3.858-16.13,11.359a235.356,235.356,0,0,0-16.137,20.715s-11.608,17.514-16.426,22.154c0,0-8.346,9.46-4.909,20.723,0,0,2.851,5.831,7.334,8.21,0,0-7.828,15.1-1.459,25.908,0,0,7.917,17.7,27.485,10.385,0,0-.9,9.046,10.927,16.417,0,0,9.4,4.981,19.144-.273,0,0-.394,8.516,8.338,14.4,0,0,11.208,7.516,25.621-.844,0,0,11.785,22.77,36.126,4.633,0,0,32.677-21.292,42.488-34.513,0,0,12.978-14.975,20.32-32.227,0,0,6.629-22.885,24.062-32.224Z"/>
  <g id="White-3" data-name="White">
    <path class="cls-3" d="M513.188,346.459s-6.548,11.838-1.6,19.143c0,0,4.994,9.826,15.828,6.921,0,0,8.328-3.364,11.813-14.1C539.232,358.426,525.414,349.8,513.188,346.459Z"/>
    <path class="cls-3" d="M545.418,363.037a19.236,19.236,0,0,1-5.188,9.064s-4.773,9.885,6.752,16.7c0,0,12.287,4.349,22.894-9.626,0,0,17.773-21.732,16.151-39.428,0,0-1.75-15.454-17.552-11.384,0,0,9.915,16.833,5.014,30.951C573.489,359.316,568.232,380.7,545.418,363.037Z"/>
    <path class="cls-3" d="M570.3,390.116s24.384-20.606,23.932-50.216c0,0,19.378-2.965,21.29,17,0,0-1.645,25.508-18.888,41.872,0,0-10.806,9.206-20.443,4.878C576.19,403.651,567.3,400.436,570.3,390.116Z"/>
    <path class="cls-3" d="M623.581,357.77s-1.638,27.182-20.906,46.333c0,0,1.786,9.191,13.812,7.639,0,0,12.621-.483,20.31-19.128,0,0,5.185-18.02,3.186-25.187C639.983,367.427,634.759,355.109,623.581,357.77Z"/>
    <path class="cls-3" d="M644.136,395.21s37.4-25.885,46.683-60.995c0,0,4.943-12.768,22.042-25.892L766,272.954s4.921-1.973,1.733-6.764l-38.245-57.46s-2.827-3.106-7.052-.294l-55.3,36.807s-22,13.066-40.741,9.037c0,0-49.832,3.036-72.7,13.475,0,0-8.006,2.456-12.241,8.771,0,0-11.938,14.233-17.867,23.737,0,0-8.037,11.77-14.841,19.852,0,0-4.823,4-2.743,11.8,0,0,1.963,4.782,8.775,6.628a120.136,120.136,0,0,1,28.2,12.4s8.008,5.718,12.372,9.222c0,0,7.655,6.333,9.645-1.433,0,0,8.586-17.054-12.063-36.857,0,0-2.642,1.193-4.174.285a5.958,5.958,0,0,1-2.733-3.169,4.05,4.05,0,0,1,3.458-4.172s11.817-.8,20.59-9.34c0,0,2.946-2.87,6.621.581,0,0,22.921,19.711,53.54,7.381a3.686,3.686,0,0,1,4.461,2.019s1.928,3.961-1.876,5.612c0,0-28.692,13.871-59.441-7.818,0,0-8.8,6.248-11.376,6.325l1.438,2.16s18.78-9.178,28.924,10.673c0,0,20.552-5.886,29.926,16.864,0,0,14.184-3.025,24.891,13.981C647.183,363.258,651.3,373.7,644.136,395.21Z"/>
  </g>
  <path class="cls-2" d="M463.025,157.857s-2.187-10.868-12.61-10.72l-70.055,1s-11.907,2.11-11.765,12.1l0.978,68.5s2.224,11.834-13.5,36.006c0,0-22.56,38.33-28.615,67.882,0,0-3.058,11.856.8,19.712a235.283,235.283,0,0,0,8.659,24.79s8.424,19.25,9.711,25.813c0,0,3.425,12.142,14.752,15.361,0,0,6.445.765,10.875-1.713,0,0,8.446,14.766,20.979,15.272,0,0,19.164,2.942,23.627-17.466,0,0,7.115,5.657,19.719-.281,0,0,9.282-5.2,10.149-16.235,0,0,6.943,4.948,16.62.8,0,0,12.393-5.344,13.181-21.988,0,0,25.523,2.442,23.478-27.844,0,0-.176-39-5.967-54.413,0,0-5.547-19.024-16.064-34.546,0,0-15.636-17.977-14.033-37.689Z"/>
  <g id="White-4" data-name="White">
    <path class="cls-4" d="M379.461,412.338s6.4,11.92,15.219,11.721c0,0,10.965,1.13,14.4-9.549,0,0,1.687-8.822-5.441-17.569C403.636,396.941,388.9,403.876,379.461,412.338Z"/>
    <path class="cls-4" d="M410.863,394.243a19.239,19.239,0,0,1,4.8,9.274s5.719,9.369,17.7,3.38c0,0,10.316-7.967,4.323-24.456,0,0-8.626-26.716-24.375-34.946,0,0-13.934-6.908-19.081,8.577,0,0,19.52.794,28.726,12.565C422.955,368.637,438.076,384.65,410.863,394.243Z"/>
    <path class="cls-4" d="M447.107,388.016s-4.1-31.661-29.223-47.334c0,0,8.014-17.89,25.828-8.673,0,0,20.543,15.211,24.945,38.571,0,0,1.878,14.072-6.983,19.823C461.674,390.4,454.153,396.129,447.107,388.016Z"/>
    <path class="cls-4" d="M448.812,325.708s21.953,16.112,27.6,42.685c0,0,8.691,3.482,13.907-7.465,0,0,6.436-10.866-5.063-27.436,0,0-12.331-14.126-19.437-16.332C465.819,317.16,452.637,314.872,448.812,325.708Z"/>
    <path class="cls-4" d="M491.416,328.733s-1.476-45.458-25.945-72.3c0,0-8.049-11.076-9.808-32.559l-0.911-63.828s1.01-5.2-4.744-5.122l-69.018.985s-4.142.692-4.069,5.768l0.948,66.422s-0.946,25.568-14.494,39.135c0,0-24.463,43.519-28.089,68.394,0,0-2.277,8.058.734,15.041,0,0,5.488,17.748,10.259,27.882,0,0,5.534,13.134,8.637,23.233,0,0,.749,6.223,8.428,8.7,0,0,5.083.943,10.327-3.781a120.147,120.147,0,0,1,25.709-16.976s9.146-3.629,14.456-5.4c0,0,9.472-3,4.026-8.881,0,0-9.676-16.461-37.511-9.846,0,0-.43,2.868-2.024,3.662a5.956,5.956,0,0,1-4.144.579,4.05,4.05,0,0,1-1.631-5.167s5.732-10.365,3.314-22.366c0,0-.814-4.031,4.077-5.249,0,0,28.989-8.573,35.229-40.987a3.684,3.684,0,0,1,4.114-2.654s4.374,0.527,3.7,4.619c0,0-3.9,31.629-38.794,45.709,0,0,.477,10.785-0.853,12.988l2.595-.037s2.469-20.756,24.649-18.518c0,0,6.2-20.461,30.395-16,0,0,5.148-13.558,25.242-13.336C466.219,308.85,477.226,311.053,491.416,328.733Z"/>
  </g>
  <path class="cls-2" d="M164.348,413.792s-11.083-.254-13.228,9.947L136.7,492.3s-0.558,12.08,9.225,14.137l67.04,14.1s12.033,0.431,32.16,21.081c0,0,32.437,30.43,59.937,42.831,0,0,10.894,5.587,19.406,3.55a235.547,235.547,0,0,0,26.086-3s20.63-3.989,27.316-3.8c0,0,12.6-.674,18.226-11.017,0,0,2.163-6.119.719-10.986,0,0,16.261-5,19.508-17.111,0,0,7.081-18.049-11.848-26.886,0,0,7.082-5.7,4.058-19.3,0,0-3.034-10.2-13.608-13.468,0,0,6.352-5.686,4.432-16.038,0,0-2.49-13.264-18.554-17.69,0,0,7.99-24.362-22-29.022,0,0-38.087-8.4-54.4-6.133,0,0-19.778,1.232-37.231,8.081,0,0-20.974,11.3-39.851,5.41Z"/>
  <g id="White-5" data-name="White">
    <path class="cls-3" d="M394.251,551.227s13.034-3.622,14.778-12.273c0,0,3.512-10.448-6.152-16.142,0,0-8.235-3.585-18.335,1.448C384.542,524.26,388.068,540.164,394.251,551.227Z"/>
    <path class="cls-3" d="M383.5,516.616a19.24,19.24,0,0,1,10.1-2.649s10.4-3.521,7.186-16.52c0,0-5.506-11.814-22.909-9.59,0,0-27.958,2.545-39.448,16.1,0,0-9.8,12.076,4.175,20.5,0,0,5.064-18.869,18.57-25.264C361.174,499.194,380.118,487.96,383.5,516.616Z"/>
    <path class="cls-3" d="M385.386,479.89S353.6,476.929,332.788,498c0,0-15.692-11.749-2.787-27.1,0,0,19.354-16.7,43.11-15.861,0,0,14.141,1.26,17.8,11.168C390.915,466.2,394.849,474.8,385.386,479.89Z"/>
    <path class="cls-3" d="M324.975,464.536s20.542-17.876,47.706-17.546c0,0,5.307-7.715-4.227-15.208,0,0-9.187-8.666-27.878-1.089,0,0-16.491,8.926-20.2,15.375C320.373,446.068,315.244,458.425,324.975,464.536Z"/>
    <path class="cls-3" d="M337.286,423.638s-44.671-8.547-76.228,9.428c0,0-12.574,5.419-33.918,2.414l-62.469-13.134s-4.856-2.129-6.04,3.5l-14.2,67.547s-0.235,4.193,4.732,5.238L214.169,512.3s24.736,6.541,34.994,22.737c0,0,37.081,33.428,60.552,42.43,0,0,7.361,3.992,14.835,2.589,0,0,18.519-1.454,29.454-3.883,0,0,14.029-2.512,24.563-3.321,0,0,6.235.637,10.342-6.31,0,0,2.037-4.752-1.419-10.9a120.155,120.155,0,0,1-10.913-28.811s-1.531-9.72-2.088-15.289c0,0-.845-9.9-7.78-5.878,0,0-18.184,5.823-17.846,34.431,0,0,2.7,1.05,3.128,2.779a5.952,5.952,0,0,1-.347,4.17,4.049,4.049,0,0,1-5.4.456s-8.852-7.869-21.091-8.147c0,0-4.112-.091-4.224-5.131,0,0-2-30.164-32.246-43.373a3.683,3.683,0,0,1-1.685-4.6s1.475-4.152,5.318-2.594c0,0,30,10.753,36.069,47.888,0,0,10.627,1.9,12.484,3.686l0.534-2.54s-19.707-6.969-12.65-28.115c0,0-18.6-10.54-8.936-33.168,0,0-12.1-8-7.465-27.556C312.353,443.851,316.921,433.6,337.286,423.638Z"/>
  </g>
  <path class="cls-2" d="M240.948,748.013s-6.422,9.037.825,16.53l48.706,50.363s9.693,7.231,16.879.282L356.6,767.563s7.1-9.725,35.482-14.822c0,0,43.381-9.812,69.062-25.639,0,0,10.733-5.892,13.816-14.083A235.417,235.417,0,0,0,487.1,689.732s8.256-19.322,12.158-24.754c0,0,6.5-10.812,1.089-21.27,0,0-3.856-5.22-8.695-6.751,0,0,4.975-16.267-3.24-25.746,0,0-10.98-15.98-28.908-5.255,0,0-.751-9.059-13.71-14.176,0,0-10.146-3.2-18.78,3.724,0,0-1.15-8.448-10.8-12.66,0,0-12.381-5.37-25.049,5.454,0,0-15.7-20.27-36.369,1.962,0,0-28.3,26.839-35.562,41.613,0,0-10.063,17.071-14.171,35.365,0,0-2.392,23.7-17.853,36.037Z"/>
  <g id="White-6" data-name="White">
    <path class="cls-4" d="M483.611,634.62s4.305-12.825-1.883-19.117c0,0-6.685-8.764-16.817-3.951,0,0-7.584,4.812-9.076,16C455.835,627.549,470.984,633.541,483.611,634.62Z"/>
    <path class="cls-4" d="M448.919,624.131a19.245,19.245,0,0,1,3.468-9.852s2.911-10.584-9.656-15.209c0,0-12.87-2.061-20.78,13.6,0,0-13.56,24.582-8.772,41.7,0,0,4.51,14.884,19.319,8.03,0,0-12.791-14.768-10.518-29.538C421.98,632.856,423.292,610.871,448.919,624.131Z"/>
    <path class="cls-4" d="M419.56,601.986s-20.266,24.667-14.477,53.71c0,0-18.525,6.413-24.009-12.88,0,0-2.985-25.387,11.022-44.593,0,0,8.968-11,19.227-8.487C411.323,589.736,420.646,591.294,419.56,601.986Z"/>
    <path class="cls-4" d="M372.99,643.415s-3.294-27.03,12.2-49.344c0,0-3.416-8.718-14.964-5.022,0,0-12.326,2.753-16.525,22.48,0,0-1.848,18.66,1.412,25.348C355.115,636.877,362.475,648.05,372.99,643.415Z"/>
    <path class="cls-4" d="M346.016,610.3s-32.113,32.209-34.91,68.418c0,0-2.558,13.451-17.008,29.445l-45.885,44.377s-4.484,2.829-.484,6.965l47.985,49.617s3.342,2.544,6.99-.985l47.751-46.181s19.279-16.821,38.442-16.241c0,0,48.466-11.978,69.075-26.372,0,0,7.431-3.861,10.458-10.836,0,0,9.173-16.154,13.289-26.571,0,0,5.782-13.028,11.015-22.2,0,0,4.022-4.807.569-12.1,0,0-2.793-4.349-9.827-4.936a120.1,120.1,0,0,1-29.977-7.107s-8.908-4.179-13.833-6.838c0,0-8.672-4.847-9.228,3.149,0,0-5.368,18.324,18.516,34.076,0,0,2.383-1.65,4.054-1.033a5.953,5.953,0,0,1,3.26,2.623,4.051,4.051,0,0,1-2.648,4.728s-11.478,2.921-18.567,12.9c0,0-2.38,3.355-6.617.624,0,0-26.1-15.252-53.993,2.4a3.685,3.685,0,0,1-4.752-1.181s-2.611-3.548.832-5.858c0,0,25.718-18.821,59.876-3.037,0,0,7.533-7.734,10.048-8.274l-1.8-1.865s-16.815,12.416-30.375-5.279c0,0-19.153,9.5-32.478-11.186,0,0-13.405,5.534-27-9.26C348.785,642.277,342.851,632.748,346.016,610.3Z"/>
  </g>
</svg>
