<svg xmlns="http://www.w3.org/2000/svg" width="1000" height="1000" viewBox="0 0 1000 1000">
  <defs>
    <style>
      .cls-1 {
        fill: #f4f4f4;
      }

      .cls-2 {
        fill: #4b413b;
      }

      .cls-2, .cls-3, .cls-4 {
        fill-rule: evenodd;
      }

      .cls-3 {
        fill: #837385;
      }

      .cls-4 {
        fill: #c1583c;
        opacity: 0.47;
      }
    </style>
  </defs>
  <circle class="cls-1" cx="500" cy="500" r="500"/>
  <path class="cls-2" d="M251.975,667h37.87V574.028s-0.967-63.972,54.248-32.694c0,0,51.87,22.091,77.788,47,0,0,31.248,23.353,45.036,38.824,0,0,20.493,25.447,56.294,30.65,0,0,22.225,14.206,107.472,6.13l182.189-32.694s4.09-28.084-32.753-44.953L674.7,557.681s-50.116,20.862-61.412,15.325c0,0-41.329,5.417-98.26-36.78,0,0-40.547-37.348-125.9-95.015L239.692,337s-76.943,97.583-26.612,168.576C213.08,505.576,257.183,546.115,251.975,667Zm251.789-14.3s15.1,7.741,50.154,12.26-1.024-7.152-1.024-7.152L515.023,652.7H503.764Z"/>
  <path class="cls-3" d="M226.386,507.619a497.71,497.71,0,0,1,72.671,19.412s-20.242,16.347-16.376,45.975l1.023,86.842H260.163s5-110.886-37.871-153.25Z"/>
  <path class="cls-4" d="M240.716,350.282S174.292,451.635,220.245,497.4c0,0,41.035,5.656,110.542,29.629,0,0,74.655,26.4,120.777,77.647,0,0,15.119,13.057,27.635,26.563,0,0,38.388,29.766,84.954,29.629,0,0,46.93,4.09,78.812-4.087l163.766-29.628s2.387-19.22-29.683-36.78l-101.33-27.586S603.031,614.86,514,541.334c0,0-59.834-49.93-69.6-54.148L241.739,348.238Z"/>
</svg>
