<svg xmlns="http://www.w3.org/2000/svg" width="1000" height="1000" viewBox="0 0 1000 1000">
  <defs>
    <style>
      .cls-1 {
        fill: #f4f4f4;
      }

      .cls-2 {
        fill: #3a2c2a;
      }

      .cls-2, .cls-3, .cls-4 {
        fill-rule: evenodd;
      }

      .cls-3, .cls-5 {
        fill: #cae6db;
      }

      .cls-4 {
        fill: #c5e1f3;
      }
    </style>
  </defs>
  <circle class="cls-1" cx="500" cy="500" r="500"/>
  <path class="cls-2" d="M312,735s-3.245,30.705,14,40c0,0,43.342,36.216,174,28,0,0,100.545,3.572,167-24,0,0,17.239-9.239,18-42,0,0,14.2,8.906,13,43,0,0-1.376,11.581,15,11h41s9.821,0.571,10-14V748s15.745-45.376,5-115c0,0-38.765-187.1-76-318,0,0-14.476-30.739-35-40l-83-44-24-33.094H449L425,231,323,285s-18.206,15.475-27,50L230,611s-16.4,67.33,8,140v36h60l1-33S304.82,741.854,312,735Z"/>
  <path id="Shape_1_copy" data-name="Shape 1 copy" class="cls-2" d="M538.379,373H617v65.8L578.379,464,537,443Z"/>
  <path class="cls-3" d="M549,383h57v47l-28,18-30-15Z"/>
  <path class="cls-4" d="M510,277l17,18s16.89-12.906,37-55l-14-19S536.113,252.074,510,277Z"/>
  <path id="Shape_2_copy" data-name="Shape 2 copy" class="cls-4" d="M488,277l-17,18s-16.89-12.906-37-55l14-19S461.887,252.074,488,277Z"/>
  <rect class="cls-5" x="709" y="755" width="43" height="21"/>
  <rect id="Rectangle_1_copy" data-name="Rectangle 1 copy" class="cls-5" x="246" y="755" width="43" height="21"/>
  <path class="cls-3" d="M672,306s-6.626,4.088-6,22c0,0-4.524,107.559,13,335,0,0,9.122,59.51,27,77h45a193.38,193.38,0,0,0,10-65s3.4-32.373-7-64L688,341S682.814,315.542,672,306Z"/>
  <path id="Shape_3_copy" data-name="Shape 3 copy" class="cls-3" d="M326,306s6.626,4.088,6,22c0,0,4.524,107.559-13,335,0,0-9.122,59.51-27,77H247a193.38,193.38,0,0,1-10-65s-3.4-32.373,7-64l66-270S315.186,315.542,326,306Z"/>
  <path class="cls-3" d="M425,245s-77.937,39.821-90,53c0,0,10.581,7.772,8,36,0,0,7.546,105.66-15,411,0,0-10.895,49,163,45V297l-16,19S448.077,306.538,425,245Z"/>
  <path id="Shape_4_copy" data-name="Shape 4 copy" class="cls-3" d="M573,245s77.937,39.821,90,53c0,0-10.581,7.772-8,36,0,0-7.546,105.66,15,411,0,0,10.895,49-163,45V297l16,19S549.923,306.538,573,245Z"/>
  <path class="cls-3" d="M459,211h82s-24.676,47.924-42,57C499,268,475.158,249.779,459,211Z"/>
</svg>
