<svg xmlns="http://www.w3.org/2000/svg" width="1000" height="1000" viewBox="0 0 1000 1000">
  <defs>
    <style>
      .cls-1 {
        fill: #f4f4f4;
      }

      .cls-2 {
        fill: #3a2d26;
      }

      .cls-2, .cls-3, .cls-4 {
        fill-rule: evenodd;
      }

      .cls-3 {
        fill: #7f6f81;
      }

      .cls-4 {
        fill: #afa188;
        opacity: 0.41;
      }
    </style>
  </defs>
  <circle class="cls-1" cx="500" cy="500" r="500"/>
  <path class="cls-2" d="M223,417s-56.085,100.881-15,142h-5v53H364V595s90.406-.62,172,17c0,0,144.991,27.694,272-40V542l-11-4s6.472-34.815-66-40l-34,3s-25.747,7.291-47-2c0,0-42.238-10.691-73-30V455s-71.711-59.774-135-76c0,0-61.957,82.728-122,70C320,449,291.429,453.568,223,417Z"/>
  <path class="cls-3" d="M576,482l-4,41s-153.131-23.951-178,36c0,0,76.6,5.884,142,14,0,0,93.672,15.632,151-1l99-27s0.135-44.194-95-31C691,514,658.148,522.679,576,482Z"/>
  <path class="cls-3" d="M560,509l4-46-17-16-6,16s-10.671,5.584-13-5l5-18-16-11-6,12s-13.241,10.169-15-5l7-15-17-8-10,12s-12.49,8.786-13-6l9-13-23-11s-85.306,120.935-223,40c0,0-45.523,92.822-6,119,0,0,117.142,2.516,154,5C374,559,395.757,484.668,560,509Z"/>
  <path class="cls-4" d="M211,567v37H357V586s68.234-2.831,189,16c0,0,131.163,21.852,250-35V553s-97.626,55.208-248,36c0,0-111.525-17.979-190-18Z"/>
</svg>
