<svg xmlns="http://www.w3.org/2000/svg" width="1000" height="1000" viewBox="0 0 1000 1000">
  <defs>
    <style>
      .cls-1 {
        fill: #f4f4f4;
      }

      .cls-2 {
        fill: #e57e25;
      }

      .cls-3 {
        fill: #f29c1f;
      }

      .cls-3, .cls-4 {
        fill-rule: evenodd;
      }

      .cls-4 {
        fill: #d25627;
      }
    </style>
  </defs>
  <circle class="cls-1" cx="500" cy="500" r="500"/>
  <ellipse class="cls-2" cx="505" cy="507.5" rx="309" ry="310.5"/>
  <path class="cls-3" d="M750,448s3.6,282.006-298,305c0,0-289.925,26.27-251-305,0,0,44.073-238.314,300-250.094,0,0,122.892.279,179,58.094C680,256,759.715,342.518,750,448Z"/>
  <path class="cls-4" d="M198,471s339.428-88.429,616.094,49V496S590.558,370.41,202,448C202,448,198.431,455.059,198,471Z"/>
  <path class="cls-4" d="M661,241S539.718,301.339,518,434c0,0-34.411,202.875,215,280l-17,18S470.714,657.679,498,432c0,0,5.463-123.988,145-201Zm-18-10,1-1s7.895,4.186,18,10l-2,1h-4l-5,1-6-6-2-4v-1Zm87,482a23.574,23.574,0,0,0,5,2l-17,17h-3v-5l5-6,5-6Z"/>
  <path class="cls-4" d="M281,296s42.11,62.834,42,142c0,0,9.57,159.462-93,212l11,18s107.716-42.565,103-231c0,0,6.338-78.168-49-156Zm-1-1s9.726-10.747,14-14l2,2-2,9-11,5h-1Z"/>
  <path class="cls-4" d="M503,197.906S436.838,243.646,424,434c0,0-25.117,247.955,57,380.094L454,812s-74.592-121.68-50-382c0,0,12.134-174.27,70-232.094h29ZM480,812s1.96,3.931,5,5c0,0-24.135-.925-30-2.906,0,0-4.388-8.2-5-10.094l25,7Z"/>
</svg>
