<svg id="Trophy" xmlns="http://www.w3.org/2000/svg" width="1000" height="1000" viewBox="0 0 1000 1000">
  <defs>
    <style>
      .cls-1, .cls-5 {
        fill: #f35f30;
      }

      .cls-2 {
        font-size: 208.333px;
        fill: #fff;
        font-family: Kanit;
        font-weight: 500;
      }

      .cls-3 {
        fill: #f49e01;
      }

      .cls-3, .cls-4, .cls-5, .cls-6 {
        fill-rule: evenodd;
      }

      .cls-4 {
        fill: #f9b806;
      }

      .cls-6 {
        fill: #35281f;
      }

      .cls-7 {
        fill: #d4d4d4;
      }
    </style>
  </defs>
  <circle class="cls-1" cx="500" cy="500" r="500"/>
  <text id="Auto_Win" data-name="Auto Win" class="cls-2" transform="translate(200.248 836.398) scale(0.673)">Auto Win</text>
  <path class="cls-3" d="M595.1,561.83s-0.085-34.236-26.181-34.236H546.09s-21.638-25.249-24.167-103.381c0,0,39.652-7.806,75.857-51.019,0,0,90.653.269,124.862-66.458,0,0,28.414-38.776,30.209-145.673,0,0-3.479-12.084-14.1-12.084L658.2,150.993s-2.07-23.886-5.37-40.949H348.055s-5.435,22.611-5.37,40.278l-82.57-2.014s-11.709,3.07-12.755,14.769c0,0-5.869,111.041,44.306,163.8,0,0,24.852,38.66,112.107,46.991,0,0,23.922,38.926,75.858,50.347,0,0-8.953,84.855-24.839,102.71H431.3s-27.164,4.455-24.838,32.894Z"/>
  <path class="cls-4" d="M594.423,110.044H364.838S333.227,371.088,482.316,424.885c0,0-2.386,68.721-17.454,102.038H443.38s-26.181,2.944-26.181,36.25H560.187s2.518-36.25-16.783-36.25H523.265s-16.536-56.118-13.426-102.038C509.839,424.885,614.354,394.365,594.423,110.044Z"/>
  <path class="cls-5" d="M341.342,178.517L274.883,176.5S264.5,332.719,380.949,342.986C380.949,342.986,345,290.832,341.342,178.517Z"/>
  <path class="cls-5" d="M658.2,178.517l66.459-2.014s9.1,159.406-107.408,166.483C617.248,342.986,656.653,281.6,658.2,178.517Z"/>
  <path class="cls-6" d="M353,660V562s-0.185-5,6-5H643s4,0.3,4,4v99h19s4,0.7,4,4v15s-0.415,5-5,5H335a4.594,4.594,0,0,1-5-5V665s1.2-5,5-5h18Z"/>
  <rect id="Rounded_Rectangle_3" data-name="Rounded Rectangle 3" class="cls-7" x="403.781" y="575.25" width="192.75" height="73.844" rx="5" ry="5"/>
</svg>
