<svg xmlns="http://www.w3.org/2000/svg" width="1000" height="1000" viewBox="0 0 1000 1000">
  <defs>
    <style>
      .cls-1 {
        fill: #20232a;
      }

      .cls-2 {
        fill: #fff;
        fill-rule: evenodd;
      }
    </style>
  </defs>
  <circle class="cls-1" cx="500" cy="500" r="500"/>
  <path id="Shape_1_copy" data-name="Shape 1 copy" class="cls-2" d="M553.686,446.187s-22.15-28.16-74.266-30.415c0,0-41-2.62-78.74,31.309L300.465,548.166s-65.792,78.826,2.684,149.391c0,0,26.767,28.384,71.582,30.415,0,0,49.246,2.331,84.109-34.888l81.425-81.4s-28.312,13.46-69.793-8.946l-51,50.99s-35.154,32.845-71.582,8.051c0,0-41.967-32.753-.895-81.4l88.583-88.561s30.7-34.888,68.9-13.418l7.158,5.367s13.4,15.393,31.317,8.946C542.949,492.7,577.822,475.213,553.686,446.187Z"/>
  <path id="Shape_2_copy" data-name="Shape 2 copy" class="cls-2" d="M460.63,387.146l82.319-80.51S598.415,246,672.692,285.167c0,0,47.073,24.6,54.581,77.826,0,0,8.545,54.568-33.107,95.718l-99.32,98.4s-77.755,63.379-151.217-6.262c0,0-15.236-18.652,3.579-36.677,0,0,15.211-15.83,34-3.578l8.947,8.051s34.747,29.46,76.056-10.735L653.9,419.35s34.282-34.192,6.264-73.354c0,0-28.151-36.355-72.477-4.472l-58.16,56.357S508.837,379.518,460.63,387.146Z"/>
</svg>
