<svg xmlns="http://www.w3.org/2000/svg" width="866" height="162" viewBox="0 0 866 162">
  <defs>
    <style>
      .cls-1 {
        fill: #00c34d;
        fill-rule: evenodd;
      }
    </style>
  </defs>
  <path class="cls-1" d="M82,0S1,5.832,1,80c0,0,.665,81,82,81H791s75-11.565,75-78c0,0-4-82.47-80-83H82ZM425,13H79S13,16.762,13,81c0,0-1.839,54.413,61,69H425s-41-25.321-41-66C384,84,383.735,29.908,425,13Zm42,36H457s-2,.12-2,4v57s-0.379,4,3,4h38s3,0.715,3-2V102a2.714,2.714,0,0,0-3-3H470V51S469.627,49,467,49Zm43-1a2.972,2.972,0,0,0-3,3v59s0.256,3,3,3h8s4,1.336,4-2V51s-0.649-3-3-3h-9Zm34,0H534s-2,.711-2,4v58s-0.252,4,3,4h9s3-.256,3-3V74l29,40h11s2,0.3,2-3V51a3.915,3.915,0,0,0-4-3h-8s-3,.292-3,4V87Zm59,0s-4-.234-4,5v58s-1.031,3,5,3h34s4,0.558,4-3v-9s0.456-3-3-3H613V88h26s3,0.371,3-2V76s0.211-2-3-2H613V63h27s2-.3,2-3V52s0.958-4-5-4H603Zm67,0a3.772,3.772,0,0,0-4,4v59s-0.066,2,3,2h9s3-.133,3-3V98h12s20.446-3.806,21-23c0,0,1.813-21.885-22-27H670Zm52,15s-2.428.814-1,5l2,6s1.338,0.781,4,0c0,0,7.2-1.232,10-1,0,0,8.888-.582,10,7H729s-13,2.914-13,17c0,0,.884,16,14,16h26s3,0.349,3-2V78s0.5-11.822-16-17A58.409,58.409,0,0,0,722,63Zm53-1h-9s-4.274-.619-2,4l16,39-8,19s-2.518,3,3,3h9s1.03-.087,2-2l25-60s2.658-3-2-3H798L787,86l-9-22S778.106,61.311,775,62Z"/>
  <path id="r" class="cls-1" d="M113,64V76S99,77.218,99,90v26H86V88S88.211,62.45,113,64Z"/>
  <path id="a" class="cls-1" d="M171,90s-0.489-26-27-26c0,0-27-.9-27,27,0,0-.681,26,26,26,0,0,7.355.682,15-7v6h13V90ZM144,77s-14-.037-14,14c0,0,1.122,13,13,13,0,0,14-.862,14-13C157,91,156.632,77,144,77Z"/>
  <path id="b" class="cls-1" d="M179,42V95s2.512,23,28,23c0,0,25.335-.626,25-27,0,0,3.08-19.557-23-27,0,0-8.1-1.089-17,6V42H179Zm27,35s-14-.109-14,14c0,0,1.927,13,13,13,0,0,14-2.306,14-13C219,91,217.755,77,206,77Z"/>
  <path id="b_copy" data-name="b copy" class="cls-1" d="M240,42V95s2.512,23,28,23c0,0,25.335-.626,25-27,0,0,3.08-19.557-23-27,0,0-8.1-1.089-17,6V42H240Zm27,35s-14-.109-14,14c0,0,1.927,13,13,13,0,0,14-2.306,14-13C280,91,278.755,77,267,77Z"/>
  <path id="i" class="cls-1" d="M301,65v51h14V65H301Z"/>
  <path id="t" class="cls-1" d="M324,42v61s2.743,12.269,14,13h13V104h-8s-6,.05-6-7V77h14V65H337V42H324Z"/>
  <path class="cls-1" d="M681,63V83h10a9.9,9.9,0,0,0,8-10s-0.723-10-8-10H681Z"/>
  <path class="cls-1" d="M747,92v9H732s-7.267-4.748,0-9h15Z"/>
</svg>
