<svg xmlns="http://www.w3.org/2000/svg" width="1000" height="588" viewBox="0 0 1000 588">
  <defs>
    <style>
      .cls-1 {
        fill: #aa0017;
      }

      .cls-1, .cls-2, .cls-3, .cls-4 {
        fill-rule: evenodd;
      }

      .cls-2 {
        fill: #ffcd00;
      }

      .cls-3 {
        fill: #ff000f;
      }

      .cls-4 {
        fill: #ff7b00;
      }
    </style>
  </defs>
  <path class="cls-1" d="M173,522H448L339,145l-33,18L196,468Z"/>
  <path class="cls-2" d="M646,215l-13-44s-5.532-29-42-29H350s-27.038-.485-17,31L447,557s0.4,39.066,74,30l142-24,12-108,16-116Z"/>
  <path class="cls-3" d="M269,0H18S-5.884.39,2,25L142,496s9.666,30.329,41,26c0,0,14.465-2.476,25-20L327,159s7.367-15.12,12-14L303,26S298.078,0.428,269,0Z"/>
  <path class="cls-4" d="M983,59H723s-29.751-.044-38,25L522,552s-14.486,34.977-34,35H801s22.9,0.689,33-28L1000,81S1001.37,60.768,983,59Z"/>
</svg>
