<svg xmlns="http://www.w3.org/2000/svg" width="1000" height="883" viewBox="0 0 1000 883">
  <defs>
    <style>
      .cls-1 {
        fill: #00c800;
        fill-rule: evenodd;
      }
    </style>
  </defs>
  <path class="cls-1" d="M905,177S774.867,2,496,2c0,0-218.891-6.3-372,145C124,147,1,253.523,1,423c0,0-5.187,183.215,173,309,0,0,17.562,9.525,11,37l-23,87s-2.18,15.153,5,21c0,0,10.96,4.972,20,1l112-64s15.444-15.323,42-4c0,0,153.9,46.512,312,2,0,0,149.58-38.042,246-146,0,0,94.683-99.959,99-237,0,0,7.34-103.334-57-204L365,558s-29.751,18.113-45-14L229,344s-7.028-13.82,0-20c0,0,8.075-12.622,21-4l106,74s26.851,16.739,53,5Z"/>
</svg>
