<svg id="TEXT_LINE_copy" data-name="TEXT LINE copy" xmlns="http://www.w3.org/2000/svg" width="1000" height="1000" viewBox="0 0 1000 1000">
  <defs>
    <style>
      .cls-1, .cls-3 {
        fill: #92d148;
      }

      .cls-2 {
        fill: #fff;
      }

      .cls-2, .cls-3 {
        fill-rule: evenodd;
      }
    </style>
  </defs>
  <circle class="cls-1" cx="500" cy="500" r="500"/>
  <path id="Shape_2_copy" data-name="Shape 2 copy" class="cls-2" d="M446.93,732.63S211.082,697.423,187.506,487.241c0,0-22.429-150.608,106.612-242.752,0,0,89.671-77.852,226.256-69.923,0,0,129.622,3.685,216.779,97.629,0,0,101.753,84.677,71.075,241.432,0,0-.954,117.557-290.223,303.439,0,0-45.129,31.363-43.83,0L480.1,772.21S484.44,735.725,446.93,732.63Z"/>
  <path id="E" class="cls-3" d="M691.482,391.289H622.715s-13.042,2.208-13.042,13.079v128.05s0.715,11.856,10.671,11.856h73.51s10.67-2.871,10.67-15.413c0,0,.427-16.6-13.042-16.6H642.871v-27.27h50.983a17.6,17.6,0,0,0,10.67-16.6s-1.6-16.6-11.856-16.6h-49.8V425.709h49.8s11.856-4.206,11.856-16.6C704.524,409.11,703.1,391.289,691.482,391.289Z"/>
  <path id="N" class="cls-3" d="M462.653,533.6V403.182s3.983-11.893,15.413-11.893c0,0,9.177-.545,14.228,7.151l61.653,83V403.182s5.185-11.893,15.414-11.893c0,0,16.6.952,16.6,13.079v128.05s-3.25,11.856-14.228,11.856a12.827,12.827,0,0,1-13.042-4.742l-61.654-84.181V533.6s-4.626,10.671-16.6,10.671C480.437,544.274,463.908,544.9,462.653,533.6Z"/>
  <path id="I" class="cls-3" d="M404.556,404.368V531.232s3.3,13.042,17.785,13.042c0,0,16.6-1.146,16.6-13.042V403.182s-3.517-11.893-16.6-11.893C422.341,391.289,404.556,392.971,404.556,404.368Z"/>
  <path id="L" class="cls-3" d="M295.476,406.739V530.046s2.818,14.228,10.671,14.228h73.51s11.857-2.774,11.857-16.6c0,0-2.046-15.413-13.042-15.413H329.86V406.739s-1.045-15.413-16.6-15.413C313.261,391.326,295.476,390.028,295.476,406.739Z"/>
</svg>
